<svg xmlns="http://www.w3.org/2000/svg" width="24" height="24" viewBox="0 0 24 24"><defs><style>.a{fill:rgba(255,255,255,0);}.b{fill:#fff;fill-rule:evenodd;}</style></defs><g transform="translate(-30 -2908)"><rect class="a" width="24" height="24" transform="translate(30 2908)"/><path class="b" d="M16.939,3A5.056,5.056,0,0,1,22,8.05v7.9A5.058,5.058,0,0,1,16.939,21H7.06A5.057,5.057,0,0,1,2,15.95V8.05A5.05,5.05,0,0,1,7.06,3ZM18.53,9.54l.08-.08a.773.773,0,0,0-.011-1,.841.841,0,0,0-.529-.26.76.76,0,0,0-.561.2L13,12a1.566,1.566,0,0,1-2,0L6.5,8.4A.765.765,0,0,0,5.429,9.47l.131.13,4.55,3.55a3.149,3.149,0,0,0,3.909,0Z" transform="translate(30 2908)"/></g></svg>