<svg xmlns="http://www.w3.org/2000/svg" width="24" height="24" viewBox="0 0 24 24"><defs><style>.a{fill:rgba(255,255,255,0);}.b{fill:#fff;}</style></defs><g transform="translate(-30 -2813)"><g transform="translate(3 1)"><rect class="a" width="24" height="24" transform="translate(27 2812)"/><path class="b" d="M18.167,14.38a2.279,2.279,0,0,0-1.674.44c-.482.281-1.4,1.024-1.923.834a11.932,11.932,0,0,1-6.313-6.16c-.193-.536.547-1.458.825-1.946a2.336,2.336,0,0,0,.436-1.685,13.705,13.705,0,0,0-2.33-3.246A1.913,1.913,0,0,0,6.021,2C4.52,1.938,2.843,3.941,2.549,4.42c-.737,1.022-.733,2.382.012,4.03,1.8,4.428,8.586,11.112,13.031,12.974A5.371,5.371,0,0,0,17.837,22a2.919,2.919,0,0,0,1.751-.549c.381-.219,2.466-1.979,2.411-3.521a1.941,1.941,0,0,0-.608-1.166A13.8,13.8,0,0,0,18.167,14.38Z" transform="translate(27 2812)"/></g></g></svg>